# xmcd
#
# Track frame offsets: 
#        150
#        22580
#        45070
#        64995
#        83042
#        96102
#        115052
#        137557
#        146781
#        175099
#
# Disc length: 2653 seconds
#
# Revision: 0
# Processed by: cddbd v1.5.2PL0 Copyright (c) Steve Scherf et al.
# Submitted via: ExactAudioCopy v0.99pb3
#
DISCID=740a5b0a
DTITLE=Carlton Rara - Home
DYEAR=2012
DGENRE=Blues
TTITLE0=A Woman Is Watching Me
TTITLE1=Papa Danbala
TTITLE2=Do You Love Me
TTITLE3=Rele Mèt Tanbou
TTITLE4=Dio Koule
TTITLE5=I Was You
TTITLE6=I'll See You
TTITLE7=Mete Dio
TTITLE8=There's A Place
TTITLE9=Resonen
EXTD=
EXTT0=
EXTT1=
EXTT2=
EXTT3=
EXTT4=
EXTT5=
EXTT6=
EXTT7=
EXTT8=
EXTT9=
PLAYORDER=
